<svg xmlns="http://www.w3.org/2000/svg" xmlns:xlink="http://www.w3.org/1999/xlink" width="500" zoomAndPan="magnify" viewBox="0 0 375 149.999998" height="200" preserveAspectRatio="xMidYMid meet" version="1.0"><defs><g/></defs><g fill="#000000" fill-opacity="1"><g transform="translate(10.207729, 100.079783)"><g><path d="M 8.125 -77.609375 L 43.59375 -60.84375 L 43.59375 -9.640625 L 33.34375 -4.796875 L 33.34375 -54.765625 L 15.25 -63.3125 L 15.25 -23.03125 L 4.984375 -18.1875 L 4.984375 -58.46875 L 15.25 -63.3125 L 3.890625 -68.671875 Z M -3.796875 -11.390625 L 4.984375 -18.1875 L 33.34375 -4.796875 L 21.84375 0.71875 Z M -3.796875 -11.390625 "/></g></g></g><g fill="#000000" fill-opacity="1"><g transform="translate(58.075633, 100.079783)"><g><path d="M 27.640625 -34.34375 L 27.640625 -48.109375 L 14.53125 -54.328125 L 26.03125 -59.84375 L 37.90625 -54.1875 L 37.90625 -28.265625 L 22.28125 -20.890625 L 14.53125 -28.15625 Z M 14.53125 -54.328125 L 14.53125 -15.578125 L 37.28125 -4.796875 L 25.78125 0.71875 L 4.28125 -9.5 L 4.28125 -49.484375 Z M 14.53125 -54.328125 "/></g></g></g><g fill="#000000" fill-opacity="1"><g transform="translate(100.482452, 100.079783)"><g><path d="M 0.234375 -50.71875 L 4.609375 -59.84375 L 15.71875 -54.328125 L 15.71875 -4.84375 L 5.46875 0 L 5.46875 -48.25 Z M 27.21875 -59.84375 L 39.09375 -54.1875 L 39.09375 -4.84375 L 28.828125 0 L 28.828125 -48.109375 L 15.71875 -54.328125 Z M 27.21875 -59.84375 "/></g></g></g><g fill="#000000" fill-opacity="1"><g transform="translate(145.026197, 100.079783)"><g><path d="M 16.484375 -67.71875 L 12.203125 -58.796875 L 2.375 -63.40625 L 6.75 -72.515625 Z M 0.234375 -50.71875 L 4.609375 -59.84375 L 15.765625 -54.328125 L 15.765625 -4.84375 L 5.515625 0 L 5.515625 -48.25 Z M 0.234375 -50.71875 "/></g></g></g><g fill="#000000" fill-opacity="1"><g transform="translate(166.253368, 100.079783)"><g><path d="M 0.234375 -50.71875 L 4.609375 -59.84375 L 15.71875 -54.328125 L 15.71875 -4.84375 L 5.46875 0 L 5.46875 -48.25 Z M 15.71875 -54.328125 L 27.21875 -59.84375 L 39.09375 -54.1875 L 39.09375 -4.84375 L 28.828125 0 L 28.828125 -48.109375 Z M 62.453125 -10.875 L 67.671875 -8.40625 L 63.3125 0.71875 L 52.1875 -4.796875 L 52.1875 -47.96875 L 39.09375 -54.1875 L 50.578125 -59.703125 L 62.453125 -54.046875 Z M 62.453125 -10.875 "/></g></g></g><g fill="#000000" fill-opacity="1"><g transform="translate(234.161209, 100.079783)"><g><path d="M 26.03125 -59.84375 L 37.90625 -54.1875 L 37.90625 -9.640625 L 27.640625 -4.796875 L 27.640625 -48.109375 L 14.53125 -54.328125 Z M 14.53125 -54.328125 L 14.53125 -11.015625 L 27.640625 -4.796875 L 16.140625 0.71875 L 4.28125 -4.9375 L 4.28125 -49.484375 Z M 14.53125 -54.328125 "/></g></g></g><g fill="#000000" fill-opacity="1"><g transform="translate(276.330554, 100.079783)"><g><path d="M 43.84375 -8.40625 L 39.46875 0.71875 L 28.59375 -4.703125 L 17.328125 0.71875 L 5.46875 -4.9375 L 5.46875 -48.25 L 0.234375 -50.71875 L 4.609375 -59.84375 L 15.71875 -54.328125 L 15.71875 -11.015625 L 28.546875 -4.9375 L 28.828125 -5.171875 L 28.828125 -48.109375 L 23.609375 -50.578125 L 27.96875 -59.703125 L 39.09375 -54.1875 L 39.09375 -10.6875 Z M 43.84375 -8.40625 "/></g></g></g><g fill="#000000" fill-opacity="1"><g transform="translate(320.399418, 100.079783)"><g><path d="M 38.609375 -53.1875 L 30.875 -45.921875 L 13.109375 -54.328125 L 24.59375 -59.84375 Z M 13.109375 -54.328125 L 13.109375 -34.53125 L 21.046875 -31.015625 L 13.109375 -23.5625 L 2.84375 -28.5 L 2.84375 -49.484375 Z M 28.78125 -38.28125 L 40.125 -32.8125 L 40.125 -9.640625 L 29.875 -4.796875 L 29.875 -26.734375 L 21.046875 -31.015625 Z M 1.65625 -7.5 L 9.40625 -14.765625 L 29.875 -4.796875 L 18.375 0.71875 Z M 1.65625 -7.5 "/></g></g></g></svg>